<svg width="87" height="87" viewBox="0 0 87 87" fill="none" xmlns="http://www.w3.org/2000/svg">
<path fill-rule="evenodd" clip-rule="evenodd" d="M0 0H5.4375V81.5625H87V87H0V0ZM54.375 19.0312C54.375 18.3102 54.6614 17.6187 55.1713 17.1088C55.6812 16.5989 56.3727 16.3125 57.0938 16.3125H78.8438C79.5648 16.3125 80.2563 16.5989 80.7662 17.1088C81.2761 17.6187 81.5625 18.3102 81.5625 19.0312V40.7812C81.5625 41.5023 81.2761 42.1938 80.7662 42.7037C80.2563 43.2136 79.5648 43.5 78.8438 43.5C78.1227 43.5 77.4312 43.2136 76.9213 42.7037C76.4114 42.1938 76.125 41.5023 76.125 40.7812V26.6438L56.4793 50.6612C56.2388 50.9547 55.9395 51.1947 55.6007 51.3656C55.2619 51.5365 54.891 51.6346 54.512 51.6535C54.133 51.6725 53.7542 51.6119 53.4001 51.4756C53.0459 51.3394 52.7241 51.1305 52.4556 50.8624L38.3887 36.7956L18.5093 64.1299C18.0744 64.6829 17.4421 65.0457 16.7452 65.1423C16.0484 65.2388 15.3413 65.0615 14.7724 64.6475C14.2036 64.2336 13.8174 63.6153 13.6949 62.9225C13.5725 62.2297 13.7233 61.5165 14.1157 60.9326L35.8657 31.0264C36.0966 30.7084 36.3937 30.4442 36.7365 30.252C37.0792 30.0598 37.4596 29.9443 37.8514 29.9133C38.2431 29.8823 38.6369 29.9365 39.0057 30.0724C39.3744 30.2082 39.7094 30.4224 39.9874 30.7001L54.1738 44.892L73.1072 21.75H57.0938C56.3727 21.75 55.6812 21.4636 55.1713 20.9537C54.6614 20.4438 54.375 19.7523 54.375 19.0312Z" fill="#F65A38"/>
</svg>
