<svg width="273" height="50" viewBox="0 0 273 50" fill="none" xmlns="http://www.w3.org/2000/svg">
<path d="M7.56396 12.6283C6.90601 12.6283 6.37629 13.1564 6.37629 13.8127V43.4659C8.29598 44.2389 10.2909 44.5722 12.3183 44.5619V13.8127C12.3183 13.1564 11.7885 12.6283 11.1306 12.6283H7.56396Z" fill="#F65A38"/>
<path d="M15.4379 21.1034C14.9657 21.1034 14.5856 21.4825 14.5856 21.9534V44.0368C14.5856 44.1684 14.6161 44.2923 14.6692 44.4032C16.6196 44.1547 18.5847 43.6268 20.5276 42.9025V21.9534C20.5276 21.4825 20.1474 21.1034 19.6753 21.1034H15.4379Z" fill="#FF8165"/>
<path d="M24.4321 7.92498C23.6983 7.92498 23.1075 8.51425 23.1075 9.24613V41.8239C25.1468 40.8839 27.1423 39.7636 29.0495 38.5614V9.24613C29.0495 8.51425 28.4586 7.92498 27.7248 7.92498H24.4321Z" fill="#DD5132"/>
<path d="M32.9777 0.867261C32.1038 0.867261 31.4003 1.56888 31.4003 2.44051V37.0118C33.5568 35.5316 35.5579 34.0001 37.3423 32.5743V2.44051C37.3423 1.56888 36.6387 0.867261 35.7647 0.867261H32.9777Z" fill="#C5482D"/>
<path d="M40.9102 27.903L51.6353 24.1535L49.5345 35.5122L47.102 33.3066C36.3007 46.48 6.33766 59.5774 0 40.1438C10.928 54.6812 33.8399 39.8657 43.2321 29.7777L40.9102 27.903Z" fill="#4D4D4D"/>
<path d="M57.7851 28.8106V0.502061H68.4916C70.3761 0.502061 71.8152 0.592175 72.8091 0.772402C74.2031 1.00412 75.3712 1.44825 76.3134 2.10479C77.2556 2.74846 78.0107 3.65604 78.5786 4.82751C79.1594 5.99899 79.4499 7.28632 79.4499 8.68952C79.4499 11.0968 78.6819 13.1373 77.1459 14.8108C75.61 16.4715 72.8349 17.3018 68.8208 17.3018H61.5411V28.8106H57.7851ZM61.5411 13.9612H68.8788C71.3054 13.9612 73.0285 13.5106 74.0482 12.6095C75.0679 11.7083 75.5777 10.4403 75.5777 8.80538C75.5777 7.62103 75.2744 6.61047 74.6677 5.7737C74.074 4.92406 73.2867 4.36407 72.3057 4.09373C71.6733 3.92638 70.5051 3.8427 68.8014 3.8427H61.5411V13.9612Z" fill="#F65A38"/>
<path d="M84.2901 28.8106V0.502061H96.8746C99.4044 0.502061 101.328 0.759529 102.644 1.27446C103.961 1.77652 105.013 2.67122 105.8 3.95856C106.587 5.2459 106.981 6.6684 106.981 8.22608C106.981 10.2343 106.329 11.9272 105.025 13.3046C103.722 14.6821 101.708 15.5575 98.9849 15.9308C99.9788 16.4071 100.734 16.877 101.25 17.3404C102.347 18.3445 103.386 19.5997 104.367 21.1059L109.304 28.8106H104.58L100.824 22.921C99.7271 21.2217 98.8236 19.9215 98.1137 19.0204C97.4038 18.1193 96.7649 17.4885 96.197 17.128C95.642 16.7676 95.074 16.5165 94.4932 16.3749C94.0673 16.2848 93.3703 16.2397 92.4022 16.2397H88.0461V28.8106H84.2901ZM88.0461 12.9957H96.1195C97.8362 12.9957 99.1785 12.8219 100.147 12.4743C101.115 12.1138 101.85 11.5474 102.354 10.775C102.857 9.98973 103.109 9.14009 103.109 8.22608C103.109 6.88725 102.618 5.78658 101.637 4.92406C100.669 4.06155 99.1334 3.63029 97.0295 3.63029H88.0461V12.9957Z" fill="#F65A38"/>
<path d="M111.744 15.0232C111.744 10.3244 113.009 6.64909 115.538 3.99718C118.068 1.33239 121.334 0 125.335 0C127.955 0 130.317 0.624358 132.421 1.87307C134.525 3.12179 136.125 4.86613 137.223 7.1061C138.333 9.33319 138.888 11.8628 138.888 14.6949C138.888 17.5657 138.307 20.1339 137.145 22.3997C135.983 24.6654 134.338 26.384 132.208 27.5554C130.078 28.714 127.781 29.2933 125.316 29.2933C122.644 29.2933 120.256 28.6497 118.152 27.3623C116.048 26.075 114.454 24.3178 113.37 22.0907C112.286 19.8636 111.744 17.5078 111.744 15.0232ZM115.616 15.0811C115.616 18.4926 116.532 21.1831 118.365 23.1527C120.211 25.1095 122.521 26.0879 125.296 26.0879C128.123 26.0879 130.446 25.0966 132.266 23.1141C134.099 21.1316 135.015 18.3188 135.015 14.6756C135.015 12.3713 134.622 10.3631 133.834 8.6509C133.06 6.92587 131.918 5.59348 130.408 4.65372C128.91 3.70109 127.226 3.22478 125.354 3.22478C122.695 3.22478 120.404 4.13879 118.481 5.9668C116.571 7.78195 115.616 10.8201 115.616 15.0811Z" fill="#F65A38"/>
<path d="M142.469 19.7156L146.012 19.4066C146.18 20.8227 146.567 21.9877 147.174 22.9017C147.794 23.8028 148.749 24.5366 150.039 25.1031C151.33 25.6566 152.782 25.9334 154.396 25.9334C155.828 25.9334 157.093 25.721 158.19 25.2962C159.287 24.8713 160.101 24.292 160.63 23.5583C161.172 22.8116 161.443 22.0006 161.443 21.1252C161.443 20.2369 161.185 19.4645 160.669 18.808C160.152 18.1386 159.3 17.5786 158.113 17.128C157.351 16.8319 155.667 16.3749 153.06 15.757C150.452 15.1262 148.626 14.534 147.581 13.9805C146.225 13.2724 145.212 12.397 144.541 11.3543C143.883 10.2987 143.554 9.12078 143.554 7.82057C143.554 6.39163 143.96 5.05923 144.773 3.82339C145.586 2.57467 146.774 1.62848 148.336 0.984812C149.897 0.341144 151.633 0.01931 153.544 0.01931C155.648 0.01931 157.5 0.360454 159.1 1.04274C160.714 1.71216 161.953 2.70341 162.818 4.01649C163.682 5.32957 164.147 6.81645 164.212 8.47711L160.61 8.74745C160.417 6.95805 159.759 5.60635 158.636 4.69234C157.526 3.77833 155.88 3.32133 153.699 3.32133C151.427 3.32133 149.768 3.73971 148.723 4.57648C147.69 5.40038 147.174 6.39806 147.174 7.56954C147.174 8.58653 147.542 9.4233 148.278 10.0798C149 10.7364 150.885 11.4122 153.931 12.1074C156.99 12.7897 159.087 13.3883 160.223 13.9032C161.875 14.6628 163.095 15.6283 163.882 16.7997C164.67 17.9583 165.063 19.2972 165.063 20.8162C165.063 22.3224 164.631 23.7449 163.766 25.0837C162.901 26.4097 161.656 27.446 160.03 28.1927C158.416 28.9264 156.596 29.2933 154.57 29.2933C152.001 29.2933 149.846 28.92 148.103 28.1734C146.374 27.4267 145.012 26.3067 144.018 24.8134C143.037 23.3072 142.521 21.6079 142.469 19.7156Z" fill="#F65A38"/>
<path d="M170.194 28.8106V0.502061H180.901C182.785 0.502061 184.224 0.592175 185.218 0.772402C186.612 1.00412 187.78 1.44825 188.722 2.10479C189.665 2.74846 190.42 3.65604 190.988 4.82751C191.568 5.99899 191.859 7.28632 191.859 8.68952C191.859 11.0968 191.091 13.1373 189.555 14.8108C188.019 16.4715 185.244 17.3018 181.23 17.3018H173.95V28.8106H170.194ZM173.95 13.9612H181.288C183.714 13.9612 185.437 13.5106 186.457 12.6095C187.477 11.7083 187.987 10.4403 187.987 8.80538C187.987 7.62103 187.683 6.61047 187.077 5.7737C186.483 4.92406 185.696 4.36407 184.715 4.09373C184.082 3.92638 182.914 3.8427 181.21 3.8427H173.95V13.9612Z" fill="#F65A38"/>
<path d="M196.718 28.8106V0.502061H217.241V3.8427H200.474V12.5129H216.176V15.8342H200.474V25.4699H217.899V28.8106H196.718Z" fill="#F65A38"/>
<path d="M223.146 28.8106V0.502061H235.73C238.26 0.502061 240.183 0.759529 241.5 1.27446C242.816 1.77652 243.868 2.67122 244.656 3.95856C245.443 5.2459 245.837 6.6684 245.837 8.22608C245.837 10.2343 245.185 11.9272 243.881 13.3046C242.578 14.6821 240.564 15.5575 237.841 15.9308C238.835 16.4071 239.59 16.877 240.106 17.3404C241.203 18.3445 242.242 19.5997 243.223 21.1059L248.16 28.8106H243.436L239.68 22.921C238.583 21.2217 237.679 19.9215 236.97 19.0204C236.26 18.1193 235.621 17.4885 235.053 17.128C234.498 16.7676 233.93 16.5165 233.349 16.3749C232.923 16.2848 232.226 16.2397 231.258 16.2397H226.902V28.8106H223.146ZM226.902 12.9957H234.975C236.692 12.9957 238.034 12.8219 239.002 12.4743C239.97 12.1138 240.706 11.5474 241.21 10.775C241.713 9.98973 241.965 9.14009 241.965 8.22608C241.965 6.88725 241.474 5.78658 240.493 4.92406C239.525 4.06155 237.989 3.63029 235.885 3.63029H226.902V12.9957Z" fill="#F65A38"/>
<path d="M251.819 28.8106V0.502061H272.342V3.8427H255.575V12.5129H271.277V15.8342H255.575V25.4699H273V28.8106H251.819Z" fill="#F65A38"/>
<path d="M68.5386 45.2615C68.0118 45.5776 67.3868 45.7357 66.6637 45.7357C65.6861 45.7357 64.8959 45.4196 64.2933 44.7873C63.6951 44.1507 63.396 43.327 63.396 42.3163C63.396 41.1899 63.7197 40.2861 64.367 39.6049C65.0142 38.9192 65.878 38.5764 66.9583 38.5764C67.5609 38.5764 68.0922 38.6877 68.5519 38.9103V40.0323C68.0431 39.6761 67.4984 39.498 66.9181 39.498C66.2173 39.498 65.6414 39.7496 65.1906 40.2527C64.7442 40.7513 64.521 41.4081 64.521 42.2228C64.521 43.0242 64.7308 43.6565 65.1504 44.1195C65.5745 44.5825 66.1414 44.8141 66.8512 44.8141C67.4493 44.8141 68.0118 44.6159 68.5386 44.2197V45.2615Z" fill="#808080"/>
<path d="M76.6305 45.7357C75.6172 45.7357 74.807 45.4173 74.1999 44.7807C73.5972 44.1395 73.2959 43.2914 73.2959 42.2362C73.2959 41.0875 73.6106 40.1904 74.2401 39.5448C74.8695 38.8992 75.7199 38.5764 76.7912 38.5764C77.8135 38.5764 78.6103 38.8903 79.1817 39.5181C79.7576 40.1458 80.0455 41.0163 80.0455 42.1293C80.0455 43.2201 79.7352 44.095 79.1147 44.754C78.4987 45.4084 77.6706 45.7357 76.6305 45.7357ZM76.7109 39.498C76.0056 39.498 75.4476 39.7384 75.0369 40.2193C74.6262 40.6957 74.4208 41.3546 74.4208 42.1961C74.4208 43.0064 74.6284 43.6453 75.0436 44.1128C75.4587 44.5803 76.0145 44.8141 76.7109 44.8141C77.4207 44.8141 77.9653 44.5848 78.3447 44.1262C78.7286 43.6676 78.9205 43.0153 78.9205 42.1694C78.9205 41.3146 78.7286 40.6556 78.3447 40.1926C77.9653 39.7295 77.4207 39.498 76.7109 39.498Z" fill="#808080"/>
<path d="M91.0569 45.5754H89.9588V41.6752C89.9588 40.2237 89.4275 39.498 88.3651 39.498C87.816 39.498 87.3607 39.7051 86.9991 40.1191C86.642 40.5287 86.4635 41.0474 86.4635 41.6752V45.5754H85.3653V38.7367H86.4635V39.872H86.4902C87.0081 39.0083 87.758 38.5764 88.7401 38.5764C89.49 38.5764 90.0637 38.8191 90.461 39.3044C90.8583 39.7852 91.0569 40.482 91.0569 41.3947V45.5754Z" fill="#808080"/>
<path d="M96.283 45.3283V44.1529C96.8812 44.5937 97.5396 44.8141 98.2583 44.8141C99.2225 44.8141 99.7046 44.4935 99.7046 43.8524C99.7046 43.6698 99.6622 43.5162 99.5774 43.3916C99.4971 43.2624 99.3855 43.1489 99.2426 43.0509C99.1042 42.953 98.9391 42.8662 98.7471 42.7905C98.5596 42.7104 98.3565 42.628 98.1378 42.5434C97.8342 42.4232 97.5664 42.303 97.3343 42.1828C97.1066 42.0581 96.9146 41.9201 96.7584 41.7687C96.6066 41.6129 96.4906 41.437 96.4102 41.2411C96.3343 41.0452 96.2964 40.8159 96.2964 40.5532C96.2964 40.2327 96.37 39.9499 96.5173 39.7051C96.6647 39.4557 96.8611 39.2487 97.1066 39.084C97.3521 38.9148 97.6311 38.7879 97.9436 38.7033C98.2605 38.6187 98.5864 38.5764 98.9212 38.5764C99.5149 38.5764 100.046 38.6788 100.515 38.8836V39.9922C100.01 39.6628 99.4301 39.498 98.7739 39.498C98.5686 39.498 98.3833 39.5225 98.2181 39.5715C98.053 39.616 97.9101 39.6806 97.7896 39.7652C97.6735 39.8498 97.582 39.9522 97.5151 40.0724C97.4526 40.1881 97.4213 40.3172 97.4213 40.4597C97.4213 40.6378 97.4526 40.787 97.5151 40.9072C97.582 41.0274 97.678 41.1342 97.803 41.2277C97.928 41.3212 98.0798 41.4058 98.2583 41.4815C98.4369 41.5572 98.64 41.6396 98.8676 41.7286C99.1712 41.8444 99.4435 41.9646 99.6846 42.0893C99.9256 42.2095 100.131 42.3475 100.301 42.5033C100.47 42.6547 100.6 42.8306 100.689 43.0309C100.783 43.2313 100.83 43.4695 100.83 43.7455C100.83 44.0839 100.754 44.3777 100.602 44.6271C100.455 44.8764 100.256 45.0834 100.006 45.2482C99.756 45.4129 99.4681 45.5353 99.1422 45.6155C98.8163 45.6956 98.4748 45.7357 98.1177 45.7357C97.4124 45.7357 96.8008 45.5999 96.283 45.3283Z" fill="#808080"/>
<path d="M111.633 45.5754H110.535V44.4935H110.508C110.053 45.3216 109.348 45.7357 108.393 45.7357C106.759 45.7357 105.942 44.7651 105.942 42.8239V38.7367H107.033V42.6502C107.033 44.0928 107.587 44.8141 108.694 44.8141C109.23 44.8141 109.669 44.6182 110.013 44.2264C110.361 43.8301 110.535 43.3136 110.535 42.677V38.7367H111.633V45.5754Z" fill="#808080"/>
<path d="M118.52 45.5754H117.422V35.4509H118.52V45.5754Z" fill="#808080"/>
<path d="M127.489 45.5086C127.23 45.6511 126.889 45.7223 126.465 45.7223C125.264 45.7223 124.664 45.0545 124.664 43.7188V39.6717H123.485V38.7367H124.664V37.0671L125.762 36.7131V38.7367H127.489V39.6717H125.762V43.5251C125.762 43.9837 125.84 44.3109 125.996 44.5068C126.152 44.7027 126.411 44.8007 126.773 44.8007C127.05 44.8007 127.288 44.725 127.489 44.5736V45.5086Z" fill="#808080"/>
<path d="M135.387 45.7357C134.374 45.7357 133.563 45.4173 132.956 44.7807C132.354 44.1395 132.052 43.2914 132.052 42.2362C132.052 41.0875 132.367 40.1904 132.997 39.5448C133.626 38.8992 134.476 38.5764 135.548 38.5764C136.57 38.5764 137.367 38.8903 137.938 39.5181C138.514 40.1458 138.802 41.0163 138.802 42.1293C138.802 43.2201 138.492 44.095 137.871 44.754C137.255 45.4084 136.427 45.7357 135.387 45.7357ZM135.467 39.498C134.762 39.498 134.204 39.7384 133.793 40.2193C133.383 40.6957 133.177 41.3546 133.177 42.1961C133.177 43.0064 133.385 43.6453 133.8 44.1128C134.215 44.5803 134.771 44.8141 135.467 44.8141C136.177 44.8141 136.722 44.5848 137.101 44.1262C137.485 43.6676 137.677 43.0153 137.677 42.1694C137.677 41.3146 137.485 40.6556 137.101 40.1926C136.722 39.7295 136.177 39.498 135.467 39.498Z" fill="#808080"/>
<path d="M147.697 39.8453C147.506 39.6984 147.229 39.6249 146.867 39.6249C146.398 39.6249 146.006 39.8453 145.689 40.2861C145.376 40.7269 145.22 41.3279 145.22 42.0893V45.5754H144.122V38.7367H145.22V40.1458H145.247C145.403 39.665 145.642 39.291 145.963 39.0239C146.285 38.7523 146.644 38.6165 147.041 38.6165C147.327 38.6165 147.546 38.6476 147.697 38.71V39.8453Z" fill="#808080"/>
<path d="M153.017 37.0003C152.821 37.0003 152.654 36.9335 152.515 36.7999C152.377 36.6664 152.308 36.4972 152.308 36.2924C152.308 36.0876 152.377 35.9184 152.515 35.7848C152.654 35.6468 152.821 35.5778 153.017 35.5778C153.218 35.5778 153.388 35.6468 153.526 35.7848C153.669 35.9184 153.74 36.0876 153.74 36.2924C153.74 36.4883 153.669 36.6552 153.526 36.7933C153.388 36.9313 153.218 37.0003 153.017 37.0003ZM153.553 45.5754H152.455V38.7367H153.553V45.5754Z" fill="#808080"/>
<path d="M164.25 45.5754H163.152V44.5068H163.125C162.647 45.3261 161.944 45.7357 161.016 45.7357C160.333 45.7357 159.797 45.5554 159.409 45.1947C159.025 44.8341 158.833 44.3555 158.833 43.7589C158.833 42.4811 159.587 41.7375 161.096 41.5283L163.152 41.2411C163.152 40.079 162.681 39.498 161.739 39.498C160.913 39.498 160.167 39.7785 159.502 40.3395V39.2175C160.176 38.7901 160.953 38.5764 161.832 38.5764C163.444 38.5764 164.25 39.4268 164.25 41.1276V45.5754ZM163.152 42.116L161.498 42.343C160.989 42.4143 160.605 42.5412 160.346 42.7237C160.087 42.9018 159.958 43.2201 159.958 43.6787C159.958 44.0126 160.076 44.2865 160.312 44.5002C160.554 44.7094 160.873 44.8141 161.27 44.8141C161.815 44.8141 162.263 44.6248 162.616 44.2464C162.973 43.8635 163.152 43.3804 163.152 42.7972V42.116Z" fill="#808080"/>
<path d="M180.601 36.4126C180.387 36.2924 180.143 36.2323 179.871 36.2323C179.103 36.2323 178.719 36.7154 178.719 37.6815V38.7367H180.327V39.6717H178.719V45.5754H177.628V39.6717H176.456V38.7367H177.628V37.6281C177.628 36.9112 177.836 36.3458 178.251 35.9317C178.666 35.5132 179.184 35.304 179.804 35.304C180.139 35.304 180.405 35.344 180.601 35.4242V36.4126Z" fill="#808080"/>
<path d="M185.64 37.0003C185.443 37.0003 185.276 36.9335 185.137 36.7999C184.999 36.6664 184.93 36.4972 184.93 36.2924C184.93 36.0876 184.999 35.9184 185.137 35.7848C185.276 35.6468 185.443 35.5778 185.64 35.5778C185.841 35.5778 186.01 35.6468 186.149 35.7848C186.291 35.9184 186.363 36.0876 186.363 36.2924C186.363 36.4883 186.291 36.6552 186.149 36.7933C186.01 36.9313 185.841 37.0003 185.64 37.0003ZM186.175 45.5754H185.077V38.7367H186.175V45.5754Z" fill="#808080"/>
<path d="M197.655 45.5754H196.557V41.6752C196.557 40.2237 196.026 39.498 194.964 39.498C194.415 39.498 193.959 39.7051 193.598 40.1191C193.241 40.5287 193.062 41.0474 193.062 41.6752V45.5754H191.964V38.7367H193.062V39.872H193.089C193.607 39.0083 194.357 38.5764 195.339 38.5764C196.089 38.5764 196.662 38.8191 197.06 39.3044C197.457 39.7852 197.655 40.482 197.655 41.3947V45.5754Z" fill="#808080"/>
<path d="M208.205 45.5754H207.107V44.5068H207.08C206.602 45.3261 205.899 45.7357 204.971 45.7357C204.288 45.7357 203.752 45.5554 203.364 45.1947C202.98 44.8341 202.788 44.3555 202.788 43.7589C202.788 42.4811 203.542 41.7375 205.051 41.5283L207.107 41.2411C207.107 40.079 206.636 39.498 205.694 39.498C204.868 39.498 204.123 39.7785 203.457 40.3395V39.2175C204.131 38.7901 204.908 38.5764 205.788 38.5764C207.399 38.5764 208.205 39.4268 208.205 41.1276V45.5754ZM207.107 42.116L205.453 42.343C204.944 42.4143 204.56 42.5412 204.301 42.7237C204.042 42.9018 203.913 43.2201 203.913 43.6787C203.913 44.0126 204.031 44.2865 204.268 44.5002C204.509 44.7094 204.828 44.8141 205.225 44.8141C205.77 44.8141 206.218 44.6248 206.571 44.2464C206.928 43.8635 207.107 43.3804 207.107 42.7972V42.116Z" fill="#808080"/>
<path d="M219.531 45.5754H218.433V41.6752C218.433 40.2237 217.902 39.498 216.839 39.498C216.29 39.498 215.835 39.7051 215.473 40.1191C215.116 40.5287 214.938 41.0474 214.938 41.6752V45.5754H213.839V38.7367H214.938V39.872H214.964C215.482 39.0083 216.232 38.5764 217.214 38.5764C217.964 38.5764 218.538 38.8191 218.935 39.3044C219.332 39.7852 219.531 40.482 219.531 41.3947V45.5754Z" fill="#808080"/>
<path d="M229.846 45.2615C229.319 45.5776 228.694 45.7357 227.971 45.7357C226.994 45.7357 226.203 45.4196 225.601 44.7873C225.003 44.1507 224.704 43.327 224.704 42.3163C224.704 41.1899 225.027 40.2861 225.674 39.6049C226.322 38.9192 227.186 38.5764 228.266 38.5764C228.868 38.5764 229.4 38.6877 229.859 38.9103V40.0323C229.351 39.6761 228.806 39.498 228.226 39.498C227.525 39.498 226.949 39.7496 226.498 40.2527C226.052 40.7513 225.828 41.4081 225.828 42.2228C225.828 43.0242 226.038 43.6565 226.458 44.1195C226.882 44.5825 227.449 44.8141 228.159 44.8141C228.757 44.8141 229.319 44.6159 229.846 44.2197V45.2615Z" fill="#808080"/>
<path d="M240.583 42.4299H235.742C235.76 43.1912 235.965 43.7789 236.358 44.193C236.751 44.607 237.291 44.8141 237.978 44.8141C238.75 44.8141 239.46 44.5603 240.108 44.0527V45.0812C239.505 45.5175 238.708 45.7357 237.717 45.7357C236.748 45.7357 235.987 45.4262 235.434 44.8074C234.88 44.1841 234.603 43.3092 234.603 42.1828C234.603 41.1187 234.905 40.2527 235.507 39.5848C236.114 38.9126 236.867 38.5764 237.764 38.5764C238.661 38.5764 239.355 38.8658 239.846 39.4446C240.337 40.0234 240.583 40.827 240.583 41.8555V42.4299ZM239.458 41.5016C239.454 40.8693 239.3 40.3774 238.996 40.0256C238.697 39.6739 238.28 39.498 237.744 39.498C237.226 39.498 236.786 39.6828 236.425 40.0523C236.063 40.4219 235.84 40.9049 235.755 41.5016H239.458Z" fill="#808080"/>
<path d="M246.378 37.0003C246.182 37.0003 246.014 36.9335 245.876 36.7999C245.738 36.6664 245.668 36.4972 245.668 36.2924C245.668 36.0876 245.738 35.9184 245.876 35.7848C246.014 35.6468 246.182 35.5778 246.378 35.5778C246.579 35.5778 246.749 35.6468 246.887 35.7848C247.03 35.9184 247.101 36.0876 247.101 36.2924C247.101 36.4883 247.03 36.6552 246.887 36.7933C246.749 36.9313 246.579 37.0003 246.378 37.0003ZM246.914 45.5754H245.816V38.7367H246.914V45.5754Z" fill="#808080"/>
<path d="M256.278 39.8453C256.086 39.6984 255.809 39.6249 255.448 39.6249C254.979 39.6249 254.586 39.8453 254.269 40.2861C253.957 40.7269 253.801 41.3279 253.801 42.0893V45.5754H252.702V38.7367H253.801V40.1458H253.827C253.984 39.665 254.222 39.291 254.544 39.0239C254.865 38.7523 255.225 38.6165 255.622 38.6165C255.908 38.6165 256.126 38.6476 256.278 38.71V39.8453Z" fill="#808080"/>
<path d="M265.944 45.5754H264.845V44.5068H264.819C264.341 45.3261 263.638 45.7357 262.709 45.7357C262.026 45.7357 261.491 45.5554 261.102 45.1947C260.719 44.8341 260.527 44.3555 260.527 43.7589C260.527 42.4811 261.281 41.7375 262.79 41.5283L264.845 41.2411C264.845 40.079 264.375 39.498 263.433 39.498C262.607 39.498 261.861 39.7785 261.196 40.3395V39.2175C261.87 38.7901 262.647 38.5764 263.526 38.5764C265.138 38.5764 265.944 39.4268 265.944 41.1276V45.5754ZM264.845 42.116L263.192 42.343C262.683 42.4143 262.299 42.5412 262.04 42.7237C261.781 42.9018 261.651 43.2201 261.651 43.6787C261.651 44.0126 261.77 44.2865 262.006 44.5002C262.247 44.7094 262.567 44.8141 262.964 44.8141C263.509 44.8141 263.957 44.6248 264.31 44.2464C264.667 43.8635 264.845 43.3804 264.845 42.7972V42.116Z" fill="#808080"/>
</svg>
